<mxfile host="65bd71144e" scale="2" border="0">
    <diagram id="3bETdBHDGdxnIo4hgfqL" name="Page-3">
        <mxGraphModel dx="1279" dy="2109" grid="1" gridSize="10" guides="1" tooltips="1" connect="1" arrows="1" fold="1" page="1" pageScale="1" pageWidth="850" pageHeight="1100" math="0" shadow="0">
            <root>
                <mxCell id="0"/>
                <mxCell id="1" parent="0"/>
                <mxCell id="kGNPlssHt2DSw6rSGk2y-1" value="Type" style="rounded=0;whiteSpace=wrap;html=1;fillColor=#f5f5f5;strokeColor=#666666;fontColor=#333333;" parent="1" vertex="1">
                    <mxGeometry x="200" y="-320" width="40" height="40" as="geometry"/>
                </mxCell>
                <mxCell id="kGNPlssHt2DSw6rSGk2y-2" value="&lt;span style=&quot;color: rgb(51, 51, 51);&quot;&gt;Packet identifier&lt;/span&gt;" style="rounded=0;whiteSpace=wrap;html=1;fillColor=#f5f5f5;strokeColor=#666666;fontColor=#333333;" parent="1" vertex="1">
                    <mxGeometry x="240" y="-320" width="80" height="40" as="geometry"/>
                </mxCell>
                <mxCell id="kGNPlssHt2DSw6rSGk2y-3" value="&lt;span style=&quot;color: rgb(51, 51, 51);&quot;&gt;OD&lt;br&gt;Identifier&lt;br&gt;&lt;/span&gt;" style="rounded=0;whiteSpace=wrap;html=1;fillColor=#f5f5f5;strokeColor=#666666;fontColor=#333333;" parent="1" vertex="1">
                    <mxGeometry x="360" y="-320" width="160" height="40" as="geometry"/>
                </mxCell>
                <mxCell id="kGNPlssHt2DSw6rSGk2y-4" value="Item 0" style="rounded=0;whiteSpace=wrap;html=1;fillColor=#d5e8d4;strokeColor=#82b366;" parent="1" vertex="1">
                    <mxGeometry x="520" y="-340" width="240" height="20" as="geometry"/>
                </mxCell>
                <mxCell id="kGNPlssHt2DSw6rSGk2y-5" value="&lt;span style=&quot;color: rgb(51, 51, 51);&quot;&gt;ID&lt;/span&gt;" style="rounded=0;whiteSpace=wrap;html=1;fillColor=#f5f5f5;strokeColor=#666666;fontColor=#333333;" parent="1" vertex="1">
                    <mxGeometry x="520" y="-320" width="160" height="40" as="geometry"/>
                </mxCell>
                <mxCell id="kGNPlssHt2DSw6rSGk2y-6" value="Odin stream packet header" style="rounded=0;whiteSpace=wrap;html=1;fillColor=#f8cecc;strokeColor=#b85450;" parent="1" vertex="1">
                    <mxGeometry x="200" y="-340" width="160" height="20" as="geometry"/>
                </mxCell>
                <mxCell id="kGNPlssHt2DSw6rSGk2y-7" value="&lt;span style=&quot;color: rgb(51, 51, 51);&quot;&gt;Size&lt;/span&gt;" style="rounded=0;whiteSpace=wrap;html=1;fillColor=#f5f5f5;strokeColor=#666666;fontColor=#333333;" parent="1" vertex="1">
                    <mxGeometry x="680" y="-320" width="80" height="40" as="geometry"/>
                </mxCell>
                <mxCell id="kGNPlssHt2DSw6rSGk2y-8" value="Item n" style="rounded=0;whiteSpace=wrap;html=1;fillColor=#d5e8d4;strokeColor=#82b366;" parent="1" vertex="1">
                    <mxGeometry x="760" y="-340" width="240" height="20" as="geometry"/>
                </mxCell>
                <mxCell id="kGNPlssHt2DSw6rSGk2y-9" value="&lt;span style=&quot;color: rgb(51, 51, 51);&quot;&gt;ID&lt;/span&gt;" style="rounded=0;whiteSpace=wrap;html=1;fillColor=#f5f5f5;strokeColor=#666666;fontColor=#333333;" parent="1" vertex="1">
                    <mxGeometry x="760" y="-320" width="160" height="40" as="geometry"/>
                </mxCell>
                <mxCell id="kGNPlssHt2DSw6rSGk2y-10" value="&lt;span style=&quot;color: rgb(51, 51, 51);&quot;&gt;Size&lt;/span&gt;" style="rounded=0;whiteSpace=wrap;html=1;fillColor=#f5f5f5;strokeColor=#666666;fontColor=#333333;" parent="1" vertex="1">
                    <mxGeometry x="920" y="-320" width="80" height="40" as="geometry"/>
                </mxCell>
                <mxCell id="kGNPlssHt2DSw6rSGk2y-11" value="N/A" style="rounded=0;whiteSpace=wrap;html=1;fillColor=#f5f5f5;strokeColor=#666666;fontColor=#333333;" parent="1" vertex="1">
                    <mxGeometry x="320" y="-320" width="40" height="40" as="geometry"/>
                </mxCell>
                <mxCell id="kGNPlssHt2DSw6rSGk2y-12" value="0" style="rounded=0;whiteSpace=wrap;html=1;fillColor=#eeeeee;strokeColor=#36393d;" parent="1" vertex="1">
                    <mxGeometry x="200" y="-270" width="40" height="20" as="geometry"/>
                </mxCell>
                <mxCell id="kGNPlssHt2DSw6rSGk2y-13" value="1" style="rounded=0;whiteSpace=wrap;html=1;fillColor=#eeeeee;strokeColor=#36393d;" parent="1" vertex="1">
                    <mxGeometry x="240" y="-270" width="40" height="20" as="geometry"/>
                </mxCell>
                <mxCell id="kGNPlssHt2DSw6rSGk2y-14" value="2" style="rounded=0;whiteSpace=wrap;html=1;fillColor=#eeeeee;strokeColor=#36393d;" parent="1" vertex="1">
                    <mxGeometry x="280" y="-270" width="40" height="20" as="geometry"/>
                </mxCell>
                <mxCell id="kGNPlssHt2DSw6rSGk2y-15" value="3" style="rounded=0;whiteSpace=wrap;html=1;fillColor=#eeeeee;strokeColor=#36393d;" parent="1" vertex="1">
                    <mxGeometry x="320" y="-270" width="40" height="20" as="geometry"/>
                </mxCell>
                <mxCell id="kGNPlssHt2DSw6rSGk2y-16" value="4" style="rounded=0;whiteSpace=wrap;html=1;fillColor=#eeeeee;strokeColor=#36393d;" parent="1" vertex="1">
                    <mxGeometry x="360" y="-270" width="40" height="20" as="geometry"/>
                </mxCell>
                <mxCell id="kGNPlssHt2DSw6rSGk2y-17" value="5" style="rounded=0;whiteSpace=wrap;html=1;fillColor=#eeeeee;strokeColor=#36393d;" parent="1" vertex="1">
                    <mxGeometry x="400" y="-270" width="40" height="20" as="geometry"/>
                </mxCell>
                <mxCell id="kGNPlssHt2DSw6rSGk2y-18" value="6" style="rounded=0;whiteSpace=wrap;html=1;fillColor=#eeeeee;strokeColor=#36393d;" parent="1" vertex="1">
                    <mxGeometry x="440" y="-270" width="40" height="20" as="geometry"/>
                </mxCell>
                <mxCell id="kGNPlssHt2DSw6rSGk2y-19" value="7" style="rounded=0;whiteSpace=wrap;html=1;fillColor=#eeeeee;strokeColor=#36393d;" parent="1" vertex="1">
                    <mxGeometry x="480" y="-270" width="40" height="20" as="geometry"/>
                </mxCell>
                <mxCell id="kGNPlssHt2DSw6rSGk2y-20" value="0" style="rounded=0;whiteSpace=wrap;html=1;" parent="1" vertex="1">
                    <mxGeometry x="520" y="-270" width="40" height="20" as="geometry"/>
                </mxCell>
                <mxCell id="kGNPlssHt2DSw6rSGk2y-21" value="1" style="rounded=0;whiteSpace=wrap;html=1;" parent="1" vertex="1">
                    <mxGeometry x="560" y="-270" width="40" height="20" as="geometry"/>
                </mxCell>
                <mxCell id="kGNPlssHt2DSw6rSGk2y-22" value="2" style="rounded=0;whiteSpace=wrap;html=1;" parent="1" vertex="1">
                    <mxGeometry x="600" y="-270" width="40" height="20" as="geometry"/>
                </mxCell>
                <mxCell id="kGNPlssHt2DSw6rSGk2y-23" value="3" style="rounded=0;whiteSpace=wrap;html=1;" parent="1" vertex="1">
                    <mxGeometry x="640" y="-270" width="40" height="20" as="geometry"/>
                </mxCell>
                <mxCell id="kGNPlssHt2DSw6rSGk2y-24" value="4" style="rounded=0;whiteSpace=wrap;html=1;" parent="1" vertex="1">
                    <mxGeometry x="680" y="-270" width="40" height="20" as="geometry"/>
                </mxCell>
                <mxCell id="kGNPlssHt2DSw6rSGk2y-25" value="5" style="rounded=0;whiteSpace=wrap;html=1;" parent="1" vertex="1">
                    <mxGeometry x="720" y="-270" width="40" height="20" as="geometry"/>
                </mxCell>
                <mxCell id="kGNPlssHt2DSw6rSGk2y-26" value="0" style="rounded=0;whiteSpace=wrap;html=1;fillColor=#eeeeee;strokeColor=#36393d;" parent="1" vertex="1">
                    <mxGeometry x="760" y="-270" width="40" height="20" as="geometry"/>
                </mxCell>
                <mxCell id="kGNPlssHt2DSw6rSGk2y-27" value="1" style="rounded=0;whiteSpace=wrap;html=1;fillColor=#eeeeee;strokeColor=#36393d;" parent="1" vertex="1">
                    <mxGeometry x="800" y="-270" width="40" height="20" as="geometry"/>
                </mxCell>
                <mxCell id="kGNPlssHt2DSw6rSGk2y-28" value="2" style="rounded=0;whiteSpace=wrap;html=1;fillColor=#eeeeee;strokeColor=#36393d;" parent="1" vertex="1">
                    <mxGeometry x="840" y="-270" width="40" height="20" as="geometry"/>
                </mxCell>
                <mxCell id="kGNPlssHt2DSw6rSGk2y-29" value="3" style="rounded=0;whiteSpace=wrap;html=1;fillColor=#eeeeee;strokeColor=#36393d;" parent="1" vertex="1">
                    <mxGeometry x="880" y="-270" width="40" height="20" as="geometry"/>
                </mxCell>
                <mxCell id="kGNPlssHt2DSw6rSGk2y-30" value="4" style="rounded=0;whiteSpace=wrap;html=1;fillColor=#eeeeee;strokeColor=#36393d;" parent="1" vertex="1">
                    <mxGeometry x="920" y="-270" width="40" height="20" as="geometry"/>
                </mxCell>
                <mxCell id="kGNPlssHt2DSw6rSGk2y-31" value="5" style="rounded=0;whiteSpace=wrap;html=1;fillColor=#eeeeee;strokeColor=#36393d;" parent="1" vertex="1">
                    <mxGeometry x="960" y="-270" width="40" height="20" as="geometry"/>
                </mxCell>
                <mxCell id="rbCQYVSnqFN7IPKWcmDP-1" value="Identifier packet header" style="rounded=0;whiteSpace=wrap;html=1;fillColor=#cce5ff;strokeColor=#36393d;" parent="1" vertex="1">
                    <mxGeometry x="360" y="-340" width="160" height="20" as="geometry"/>
                </mxCell>
                <mxCell id="VahKS3GtbxWFzNqi2bG2-1" value="Type" style="rounded=0;whiteSpace=wrap;html=1;fillColor=#f5f5f5;strokeColor=#666666;fontColor=#333333;" parent="1" vertex="1">
                    <mxGeometry x="200" y="-200" width="40" height="40" as="geometry"/>
                </mxCell>
                <mxCell id="VahKS3GtbxWFzNqi2bG2-2" value="&lt;span style=&quot;color: rgb(51, 51, 51);&quot;&gt;Packet identifier&lt;/span&gt;" style="rounded=0;whiteSpace=wrap;html=1;fillColor=#f5f5f5;strokeColor=#666666;fontColor=#333333;" parent="1" vertex="1">
                    <mxGeometry x="240" y="-200" width="80" height="40" as="geometry"/>
                </mxCell>
                <mxCell id="VahKS3GtbxWFzNqi2bG2-3" value="Timestamp" style="rounded=0;whiteSpace=wrap;html=1;fillColor=#f5f5f5;strokeColor=#666666;fontColor=#333333;" parent="1" vertex="1">
                    <mxGeometry x="360" y="-200" width="160" height="40" as="geometry"/>
                </mxCell>
                <mxCell id="VahKS3GtbxWFzNqi2bG2-4" value="Item 0" style="rounded=0;whiteSpace=wrap;html=1;fillColor=#d5e8d4;strokeColor=#82b366;" parent="1" vertex="1">
                    <mxGeometry x="600" y="-220" width="240" height="20" as="geometry"/>
                </mxCell>
                <mxCell id="VahKS3GtbxWFzNqi2bG2-5" value="&lt;span style=&quot;color: rgb(51, 51, 51);&quot;&gt;Data&lt;/span&gt;" style="rounded=0;whiteSpace=wrap;html=1;fillColor=#f5f5f5;strokeColor=#666666;fontColor=#333333;" parent="1" vertex="1">
                    <mxGeometry x="600" y="-200" width="240" height="40" as="geometry"/>
                </mxCell>
                <mxCell id="VahKS3GtbxWFzNqi2bG2-6" value="Odin stream packet header" style="rounded=0;whiteSpace=wrap;html=1;fillColor=#f8cecc;strokeColor=#b85450;" parent="1" vertex="1">
                    <mxGeometry x="200" y="-220" width="160" height="20" as="geometry"/>
                </mxCell>
                <mxCell id="VahKS3GtbxWFzNqi2bG2-8" value="Item n" style="rounded=0;whiteSpace=wrap;html=1;fillColor=#d5e8d4;strokeColor=#82b366;" parent="1" vertex="1">
                    <mxGeometry x="840" y="-220" width="240" height="20" as="geometry"/>
                </mxCell>
                <mxCell id="VahKS3GtbxWFzNqi2bG2-9" value="&lt;span style=&quot;color: rgb(51, 51, 51);&quot;&gt;Data&lt;/span&gt;" style="rounded=0;whiteSpace=wrap;html=1;fillColor=#f5f5f5;strokeColor=#666666;fontColor=#333333;" parent="1" vertex="1">
                    <mxGeometry x="840" y="-200" width="240" height="40" as="geometry"/>
                </mxCell>
                <mxCell id="VahKS3GtbxWFzNqi2bG2-11" value="N/A" style="rounded=0;whiteSpace=wrap;html=1;fillColor=#f5f5f5;strokeColor=#666666;fontColor=#333333;" parent="1" vertex="1">
                    <mxGeometry x="320" y="-200" width="40" height="40" as="geometry"/>
                </mxCell>
                <mxCell id="VahKS3GtbxWFzNqi2bG2-12" value="0" style="rounded=0;whiteSpace=wrap;html=1;fillColor=#eeeeee;strokeColor=#36393d;" parent="1" vertex="1">
                    <mxGeometry x="200" y="-150" width="40" height="20" as="geometry"/>
                </mxCell>
                <mxCell id="VahKS3GtbxWFzNqi2bG2-13" value="1" style="rounded=0;whiteSpace=wrap;html=1;fillColor=#eeeeee;strokeColor=#36393d;" parent="1" vertex="1">
                    <mxGeometry x="240" y="-150" width="40" height="20" as="geometry"/>
                </mxCell>
                <mxCell id="VahKS3GtbxWFzNqi2bG2-14" value="2" style="rounded=0;whiteSpace=wrap;html=1;fillColor=#eeeeee;strokeColor=#36393d;" parent="1" vertex="1">
                    <mxGeometry x="280" y="-150" width="40" height="20" as="geometry"/>
                </mxCell>
                <mxCell id="VahKS3GtbxWFzNqi2bG2-15" value="3" style="rounded=0;whiteSpace=wrap;html=1;fillColor=#eeeeee;strokeColor=#36393d;" parent="1" vertex="1">
                    <mxGeometry x="320" y="-150" width="40" height="20" as="geometry"/>
                </mxCell>
                <mxCell id="VahKS3GtbxWFzNqi2bG2-16" value="4" style="rounded=0;whiteSpace=wrap;html=1;fillColor=#eeeeee;strokeColor=#36393d;" parent="1" vertex="1">
                    <mxGeometry x="360" y="-150" width="40" height="20" as="geometry"/>
                </mxCell>
                <mxCell id="VahKS3GtbxWFzNqi2bG2-17" value="5" style="rounded=0;whiteSpace=wrap;html=1;fillColor=#eeeeee;strokeColor=#36393d;" parent="1" vertex="1">
                    <mxGeometry x="400" y="-150" width="40" height="20" as="geometry"/>
                </mxCell>
                <mxCell id="VahKS3GtbxWFzNqi2bG2-18" value="6" style="rounded=0;whiteSpace=wrap;html=1;fillColor=#eeeeee;strokeColor=#36393d;" parent="1" vertex="1">
                    <mxGeometry x="440" y="-150" width="40" height="20" as="geometry"/>
                </mxCell>
                <mxCell id="VahKS3GtbxWFzNqi2bG2-19" value="7" style="rounded=0;whiteSpace=wrap;html=1;fillColor=#eeeeee;strokeColor=#36393d;" parent="1" vertex="1">
                    <mxGeometry x="480" y="-150" width="40" height="20" as="geometry"/>
                </mxCell>
                <mxCell id="VahKS3GtbxWFzNqi2bG2-20" value="0" style="rounded=0;whiteSpace=wrap;html=1;" parent="1" vertex="1">
                    <mxGeometry x="600" y="-150" width="40" height="20" as="geometry"/>
                </mxCell>
                <mxCell id="VahKS3GtbxWFzNqi2bG2-21" value="1" style="rounded=0;whiteSpace=wrap;html=1;" parent="1" vertex="1">
                    <mxGeometry x="640" y="-150" width="40" height="20" as="geometry"/>
                </mxCell>
                <mxCell id="VahKS3GtbxWFzNqi2bG2-22" value="2" style="rounded=0;whiteSpace=wrap;html=1;" parent="1" vertex="1">
                    <mxGeometry x="680" y="-150" width="40" height="20" as="geometry"/>
                </mxCell>
                <mxCell id="VahKS3GtbxWFzNqi2bG2-23" value="3" style="rounded=0;whiteSpace=wrap;html=1;" parent="1" vertex="1">
                    <mxGeometry x="720" y="-150" width="40" height="20" as="geometry"/>
                </mxCell>
                <mxCell id="VahKS3GtbxWFzNqi2bG2-25" value="n" style="rounded=0;whiteSpace=wrap;html=1;" parent="1" vertex="1">
                    <mxGeometry x="800" y="-150" width="40" height="20" as="geometry"/>
                </mxCell>
                <mxCell id="VahKS3GtbxWFzNqi2bG2-26" value="0" style="rounded=0;whiteSpace=wrap;html=1;fillColor=#eeeeee;strokeColor=#36393d;" parent="1" vertex="1">
                    <mxGeometry x="840" y="-150" width="40" height="20" as="geometry"/>
                </mxCell>
                <mxCell id="VahKS3GtbxWFzNqi2bG2-27" value="1" style="rounded=0;whiteSpace=wrap;html=1;fillColor=#eeeeee;strokeColor=#36393d;" parent="1" vertex="1">
                    <mxGeometry x="880" y="-150" width="40" height="20" as="geometry"/>
                </mxCell>
                <mxCell id="VahKS3GtbxWFzNqi2bG2-28" value="2" style="rounded=0;whiteSpace=wrap;html=1;fillColor=#eeeeee;strokeColor=#36393d;" parent="1" vertex="1">
                    <mxGeometry x="920" y="-150" width="40" height="20" as="geometry"/>
                </mxCell>
                <mxCell id="VahKS3GtbxWFzNqi2bG2-29" value="3" style="rounded=0;whiteSpace=wrap;html=1;fillColor=#eeeeee;strokeColor=#36393d;" parent="1" vertex="1">
                    <mxGeometry x="960" y="-150" width="40" height="20" as="geometry"/>
                </mxCell>
                <mxCell id="VahKS3GtbxWFzNqi2bG2-30" value="..." style="rounded=0;whiteSpace=wrap;html=1;fillColor=#eeeeee;strokeColor=#36393d;" parent="1" vertex="1">
                    <mxGeometry x="1000" y="-150" width="40" height="20" as="geometry"/>
                </mxCell>
                <mxCell id="VahKS3GtbxWFzNqi2bG2-31" value="n" style="rounded=0;whiteSpace=wrap;html=1;fillColor=#eeeeee;strokeColor=#36393d;" parent="1" vertex="1">
                    <mxGeometry x="1040" y="-150" width="40" height="20" as="geometry"/>
                </mxCell>
                <mxCell id="VahKS3GtbxWFzNqi2bG2-32" value="Data packet header" style="rounded=0;whiteSpace=wrap;html=1;fillColor=#cce5ff;strokeColor=#36393d;" parent="1" vertex="1">
                    <mxGeometry x="360" y="-220" width="240" height="20" as="geometry"/>
                </mxCell>
                <mxCell id="VahKS3GtbxWFzNqi2bG2-33" value="..." style="rounded=0;whiteSpace=wrap;html=1;" parent="1" vertex="1">
                    <mxGeometry x="760" y="-150" width="40" height="20" as="geometry"/>
                </mxCell>
                <mxCell id="VahKS3GtbxWFzNqi2bG2-34" value="Sequence" style="rounded=0;whiteSpace=wrap;html=1;fillColor=#f5f5f5;strokeColor=#666666;fontColor=#333333;" parent="1" vertex="1">
                    <mxGeometry x="520" y="-200" width="80" height="40" as="geometry"/>
                </mxCell>
                <mxCell id="VahKS3GtbxWFzNqi2bG2-35" value="8" style="rounded=0;whiteSpace=wrap;html=1;fillColor=#eeeeee;strokeColor=#36393d;" parent="1" vertex="1">
                    <mxGeometry x="520" y="-150" width="40" height="20" as="geometry"/>
                </mxCell>
                <mxCell id="VahKS3GtbxWFzNqi2bG2-36" value="9" style="rounded=0;whiteSpace=wrap;html=1;fillColor=#eeeeee;strokeColor=#36393d;" parent="1" vertex="1">
                    <mxGeometry x="560" y="-150" width="40" height="20" as="geometry"/>
                </mxCell>
                <mxCell id="VahKS3GtbxWFzNqi2bG2-37" value="Type" style="rounded=0;whiteSpace=wrap;html=1;fillColor=#f5f5f5;strokeColor=#666666;fontColor=#333333;" parent="1" vertex="1">
                    <mxGeometry x="200" y="-80" width="40" height="40" as="geometry"/>
                </mxCell>
                <mxCell id="VahKS3GtbxWFzNqi2bG2-38" value="&lt;span style=&quot;color: rgb(51, 51, 51);&quot;&gt;Packet identifier&lt;/span&gt;" style="rounded=0;whiteSpace=wrap;html=1;fillColor=#f5f5f5;strokeColor=#666666;fontColor=#333333;" parent="1" vertex="1">
                    <mxGeometry x="240" y="-80" width="80" height="40" as="geometry"/>
                </mxCell>
                <mxCell id="VahKS3GtbxWFzNqi2bG2-42" value="Odin stream packet header" style="rounded=0;whiteSpace=wrap;html=1;fillColor=#f8cecc;strokeColor=#b85450;" parent="1" vertex="1">
                    <mxGeometry x="200" y="-100" width="160" height="20" as="geometry"/>
                </mxCell>
                <mxCell id="VahKS3GtbxWFzNqi2bG2-43" value="Data" style="rounded=0;whiteSpace=wrap;html=1;fillColor=#d5e8d4;strokeColor=#82b366;" parent="1" vertex="1">
                    <mxGeometry x="600" y="-100" width="360" height="20" as="geometry"/>
                </mxCell>
                <mxCell id="VahKS3GtbxWFzNqi2bG2-44" value="&lt;span style=&quot;color: rgb(51, 51, 51);&quot;&gt;Data&lt;/span&gt;" style="rounded=0;whiteSpace=wrap;html=1;fillColor=#f5f5f5;strokeColor=#666666;fontColor=#333333;" parent="1" vertex="1">
                    <mxGeometry x="600" y="-80" width="360" height="40" as="geometry"/>
                </mxCell>
                <mxCell id="VahKS3GtbxWFzNqi2bG2-45" value="N/A" style="rounded=0;whiteSpace=wrap;html=1;fillColor=#f5f5f5;strokeColor=#666666;fontColor=#333333;" parent="1" vertex="1">
                    <mxGeometry x="320" y="-80" width="40" height="40" as="geometry"/>
                </mxCell>
                <mxCell id="VahKS3GtbxWFzNqi2bG2-46" value="0" style="rounded=0;whiteSpace=wrap;html=1;fillColor=#eeeeee;strokeColor=#36393d;" parent="1" vertex="1">
                    <mxGeometry x="200" y="-30" width="40" height="20" as="geometry"/>
                </mxCell>
                <mxCell id="VahKS3GtbxWFzNqi2bG2-47" value="1" style="rounded=0;whiteSpace=wrap;html=1;fillColor=#eeeeee;strokeColor=#36393d;" parent="1" vertex="1">
                    <mxGeometry x="240" y="-30" width="40" height="20" as="geometry"/>
                </mxCell>
                <mxCell id="VahKS3GtbxWFzNqi2bG2-48" value="2" style="rounded=0;whiteSpace=wrap;html=1;fillColor=#eeeeee;strokeColor=#36393d;" parent="1" vertex="1">
                    <mxGeometry x="280" y="-30" width="40" height="20" as="geometry"/>
                </mxCell>
                <mxCell id="VahKS3GtbxWFzNqi2bG2-49" value="3" style="rounded=0;whiteSpace=wrap;html=1;fillColor=#eeeeee;strokeColor=#36393d;" parent="1" vertex="1">
                    <mxGeometry x="320" y="-30" width="40" height="20" as="geometry"/>
                </mxCell>
                <mxCell id="VahKS3GtbxWFzNqi2bG2-59" value="0" style="rounded=0;whiteSpace=wrap;html=1;" parent="1" vertex="1">
                    <mxGeometry x="600" y="-30" width="40" height="20" as="geometry"/>
                </mxCell>
                <mxCell id="VahKS3GtbxWFzNqi2bG2-60" value="1" style="rounded=0;whiteSpace=wrap;html=1;" parent="1" vertex="1">
                    <mxGeometry x="640" y="-30" width="40" height="20" as="geometry"/>
                </mxCell>
                <mxCell id="VahKS3GtbxWFzNqi2bG2-61" value="2" style="rounded=0;whiteSpace=wrap;html=1;" parent="1" vertex="1">
                    <mxGeometry x="680" y="-30" width="40" height="20" as="geometry"/>
                </mxCell>
                <mxCell id="VahKS3GtbxWFzNqi2bG2-62" value="3" style="rounded=0;whiteSpace=wrap;html=1;" parent="1" vertex="1">
                    <mxGeometry x="720" y="-30" width="40" height="20" as="geometry"/>
                </mxCell>
                <mxCell id="VahKS3GtbxWFzNqi2bG2-63" value="..." style="rounded=0;whiteSpace=wrap;html=1;" parent="1" vertex="1">
                    <mxGeometry x="880" y="-30" width="40" height="20" as="geometry"/>
                </mxCell>
                <mxCell id="VahKS3GtbxWFzNqi2bG2-64" value="n" style="rounded=0;whiteSpace=wrap;html=1;" parent="1" vertex="1">
                    <mxGeometry x="920" y="-30" width="40" height="20" as="geometry"/>
                </mxCell>
                <mxCell id="VahKS3GtbxWFzNqi2bG2-70" value="&lt;b&gt;TYPE&lt;/b&gt;&lt;br&gt;&lt;span style=&quot;color: rgb(0, 0, 0);&quot;&gt;0x0B&lt;/span&gt;" style="rounded=0;whiteSpace=wrap;html=1;fillColor=#bac8d3;strokeColor=#23445d;" parent="1" vertex="1">
                    <mxGeometry x="120" y="-80" width="40" height="40" as="geometry"/>
                </mxCell>
                <mxCell id="VahKS3GtbxWFzNqi2bG2-71" value="&lt;b&gt;TYPE&lt;/b&gt;&lt;br&gt;0x01" style="rounded=0;whiteSpace=wrap;html=1;fillColor=#bac8d3;strokeColor=#23445d;" parent="1" vertex="1">
                    <mxGeometry x="120" y="-320" width="40" height="40" as="geometry"/>
                </mxCell>
                <mxCell id="VahKS3GtbxWFzNqi2bG2-72" value="&lt;b&gt;TYPE&lt;/b&gt;&lt;br&gt;&lt;span style=&quot;color: rgb(0, 0, 0);&quot;&gt;0x02&lt;/span&gt;" style="rounded=0;whiteSpace=wrap;html=1;fillColor=#bac8d3;strokeColor=#23445d;" parent="1" vertex="1">
                    <mxGeometry x="120" y="-200" width="40" height="40" as="geometry"/>
                </mxCell>
                <mxCell id="VahKS3GtbxWFzNqi2bG2-73" value="4" style="rounded=0;whiteSpace=wrap;html=1;" parent="1" vertex="1">
                    <mxGeometry x="760" y="-30" width="40" height="20" as="geometry"/>
                </mxCell>
                <mxCell id="VahKS3GtbxWFzNqi2bG2-74" value="5" style="rounded=0;whiteSpace=wrap;html=1;" parent="1" vertex="1">
                    <mxGeometry x="800" y="-30" width="40" height="20" as="geometry"/>
                </mxCell>
                <mxCell id="VahKS3GtbxWFzNqi2bG2-75" value="6" style="rounded=0;whiteSpace=wrap;html=1;" parent="1" vertex="1">
                    <mxGeometry x="840" y="-30" width="40" height="20" as="geometry"/>
                </mxCell>
                <mxCell id="VahKS3GtbxWFzNqi2bG2-80" value="&lt;b&gt;Identifier&lt;/b&gt;" style="rounded=0;whiteSpace=wrap;html=1;fillColor=#bac8d3;strokeColor=#23445d;" parent="1" vertex="1">
                    <mxGeometry x="40" y="-320" width="80" height="40" as="geometry"/>
                </mxCell>
                <mxCell id="VahKS3GtbxWFzNqi2bG2-81" value="&lt;b&gt;Data&lt;/b&gt;" style="rounded=0;whiteSpace=wrap;html=1;fillColor=#bac8d3;strokeColor=#23445d;" parent="1" vertex="1">
                    <mxGeometry x="40" y="-200" width="80" height="40" as="geometry"/>
                </mxCell>
                <mxCell id="VahKS3GtbxWFzNqi2bG2-82" value="&lt;b&gt;Event&lt;/b&gt;" style="rounded=0;whiteSpace=wrap;html=1;fillColor=#bac8d3;strokeColor=#23445d;" parent="1" vertex="1">
                    <mxGeometry x="40" y="-80" width="80" height="40" as="geometry"/>
                </mxCell>
                <mxCell id="VahKS3GtbxWFzNqi2bG2-83" value="Timestamp" style="rounded=0;whiteSpace=wrap;html=1;fillColor=#f5f5f5;strokeColor=#666666;fontColor=#333333;" parent="1" vertex="1">
                    <mxGeometry x="360" y="-80" width="160" height="40" as="geometry"/>
                </mxCell>
                <mxCell id="VahKS3GtbxWFzNqi2bG2-84" value="Event packet header" style="rounded=0;whiteSpace=wrap;html=1;fillColor=#cce5ff;strokeColor=#36393d;" parent="1" vertex="1">
                    <mxGeometry x="360" y="-100" width="240" height="20" as="geometry"/>
                </mxCell>
                <mxCell id="VahKS3GtbxWFzNqi2bG2-85" value="Sequence" style="rounded=0;whiteSpace=wrap;html=1;fillColor=#f5f5f5;strokeColor=#666666;fontColor=#333333;" parent="1" vertex="1">
                    <mxGeometry x="520" y="-80" width="80" height="40" as="geometry"/>
                </mxCell>
                <mxCell id="VahKS3GtbxWFzNqi2bG2-86" value="4" style="rounded=0;whiteSpace=wrap;html=1;fillColor=#eeeeee;strokeColor=#36393d;" parent="1" vertex="1">
                    <mxGeometry x="360" y="-30" width="40" height="20" as="geometry"/>
                </mxCell>
                <mxCell id="VahKS3GtbxWFzNqi2bG2-87" value="5" style="rounded=0;whiteSpace=wrap;html=1;fillColor=#eeeeee;strokeColor=#36393d;" parent="1" vertex="1">
                    <mxGeometry x="400" y="-30" width="40" height="20" as="geometry"/>
                </mxCell>
                <mxCell id="VahKS3GtbxWFzNqi2bG2-88" value="6" style="rounded=0;whiteSpace=wrap;html=1;fillColor=#eeeeee;strokeColor=#36393d;" parent="1" vertex="1">
                    <mxGeometry x="440" y="-30" width="40" height="20" as="geometry"/>
                </mxCell>
                <mxCell id="VahKS3GtbxWFzNqi2bG2-89" value="7" style="rounded=0;whiteSpace=wrap;html=1;fillColor=#eeeeee;strokeColor=#36393d;" parent="1" vertex="1">
                    <mxGeometry x="480" y="-30" width="40" height="20" as="geometry"/>
                </mxCell>
                <mxCell id="VahKS3GtbxWFzNqi2bG2-90" value="8" style="rounded=0;whiteSpace=wrap;html=1;fillColor=#eeeeee;strokeColor=#36393d;" parent="1" vertex="1">
                    <mxGeometry x="520" y="-30" width="40" height="20" as="geometry"/>
                </mxCell>
                <mxCell id="VahKS3GtbxWFzNqi2bG2-91" value="9" style="rounded=0;whiteSpace=wrap;html=1;fillColor=#eeeeee;strokeColor=#36393d;" parent="1" vertex="1">
                    <mxGeometry x="560" y="-30" width="40" height="20" as="geometry"/>
                </mxCell>
            </root>
        </mxGraphModel>
    </diagram>
    <diagram id="Die8snK1uMh-dL0AAzdI" name="Page-1">
        <mxGraphModel dx="1198" dy="2132" grid="1" gridSize="10" guides="1" tooltips="1" connect="1" arrows="1" fold="1" page="1" pageScale="1" pageWidth="850" pageHeight="1100" math="0" shadow="0">
            <root>
                <mxCell id="0"/>
                <mxCell id="1" parent="0"/>
                <mxCell id="33" value="&lt;span style=&quot;color: rgb(51, 51, 51);&quot;&gt;Payload&lt;/span&gt;" style="rounded=0;whiteSpace=wrap;html=1;fillColor=#f5f5f5;strokeColor=#666666;fontColor=#333333;" parent="1" vertex="1">
                    <mxGeometry x="280" y="-80" width="280" height="40" as="geometry"/>
                </mxCell>
                <mxCell id="44" style="edgeStyle=none;html=1;exitX=1;exitY=0.5;exitDx=0;exitDy=0;entryX=0;entryY=0.5;entryDx=0;entryDy=0;" parent="1" source="41" target="42" edge="1">
                    <mxGeometry relative="1" as="geometry"/>
                </mxCell>
                <mxCell id="41" value="Master" style="rounded=1;whiteSpace=wrap;html=1;" parent="1" vertex="1">
                    <mxGeometry x="160" y="-440" width="120" height="40" as="geometry"/>
                </mxCell>
                <mxCell id="42" value="Slave" style="rounded=1;whiteSpace=wrap;html=1;" parent="1" vertex="1">
                    <mxGeometry x="560" y="-440" width="120" height="40" as="geometry"/>
                </mxCell>
                <mxCell id="45" value="Data direction" style="text;html=1;align=center;verticalAlign=middle;resizable=0;points=[];autosize=1;strokeColor=none;fillColor=none;" parent="1" vertex="1">
                    <mxGeometry x="340" y="-472" width="100" height="30" as="geometry"/>
                </mxCell>
                <mxCell id="46" value="&lt;span style=&quot;color: rgb(51, 51, 51);&quot;&gt;Packet&lt;br&gt;type&lt;/span&gt;" style="rounded=0;whiteSpace=wrap;html=1;fillColor=#f5f5f5;strokeColor=#666666;fontColor=#333333;" parent="1" vertex="1">
                    <mxGeometry x="200" y="-320" width="40" height="40" as="geometry"/>
                </mxCell>
                <mxCell id="47" value="&lt;span style=&quot;color: rgb(51, 51, 51);&quot;&gt;Packet identifier&lt;/span&gt;" style="rounded=0;whiteSpace=wrap;html=1;fillColor=#f5f5f5;strokeColor=#666666;fontColor=#333333;" parent="1" vertex="1">
                    <mxGeometry x="240" y="-320" width="80" height="40" as="geometry"/>
                </mxCell>
                <mxCell id="49" value="&lt;span style=&quot;color: rgb(51, 51, 51);&quot;&gt;OD&lt;br&gt;Identifier&lt;br&gt;&lt;/span&gt;" style="rounded=0;whiteSpace=wrap;html=1;fillColor=#f5f5f5;strokeColor=#666666;fontColor=#333333;" parent="1" vertex="1">
                    <mxGeometry x="360" y="-320" width="160" height="40" as="geometry"/>
                </mxCell>
                <mxCell id="50" value="Item 0" style="rounded=0;whiteSpace=wrap;html=1;fillColor=#d5e8d4;strokeColor=#82b366;" parent="1" vertex="1">
                    <mxGeometry x="520" y="-340" width="240" height="20" as="geometry"/>
                </mxCell>
                <mxCell id="52" value="&lt;span style=&quot;color: rgb(51, 51, 51);&quot;&gt;ID&lt;/span&gt;" style="rounded=0;whiteSpace=wrap;html=1;fillColor=#f5f5f5;strokeColor=#666666;fontColor=#333333;" parent="1" vertex="1">
                    <mxGeometry x="520" y="-320" width="160" height="40" as="geometry"/>
                </mxCell>
                <mxCell id="53" value="Identifier packet header" style="rounded=0;whiteSpace=wrap;html=1;fillColor=#f8cecc;strokeColor=#b85450;" parent="1" vertex="1">
                    <mxGeometry x="200" y="-340" width="320" height="20" as="geometry"/>
                </mxCell>
                <mxCell id="54" value="&lt;span style=&quot;color: rgb(51, 51, 51);&quot;&gt;Size&lt;/span&gt;" style="rounded=0;whiteSpace=wrap;html=1;fillColor=#f5f5f5;strokeColor=#666666;fontColor=#333333;" parent="1" vertex="1">
                    <mxGeometry x="680" y="-320" width="80" height="40" as="geometry"/>
                </mxCell>
                <mxCell id="55" value="Item n" style="rounded=0;whiteSpace=wrap;html=1;fillColor=#d5e8d4;strokeColor=#82b366;" parent="1" vertex="1">
                    <mxGeometry x="760" y="-340" width="240" height="20" as="geometry"/>
                </mxCell>
                <mxCell id="59" value="&lt;span style=&quot;color: rgb(51, 51, 51);&quot;&gt;ID&lt;/span&gt;" style="rounded=0;whiteSpace=wrap;html=1;fillColor=#f5f5f5;strokeColor=#666666;fontColor=#333333;" parent="1" vertex="1">
                    <mxGeometry x="760" y="-320" width="160" height="40" as="geometry"/>
                </mxCell>
                <mxCell id="60" value="&lt;span style=&quot;color: rgb(51, 51, 51);&quot;&gt;Size&lt;/span&gt;" style="rounded=0;whiteSpace=wrap;html=1;fillColor=#f5f5f5;strokeColor=#666666;fontColor=#333333;" parent="1" vertex="1">
                    <mxGeometry x="920" y="-320" width="80" height="40" as="geometry"/>
                </mxCell>
                <mxCell id="71" value="&lt;span style=&quot;color: rgb(51, 51, 51);&quot;&gt;Packet type&lt;/span&gt;" style="rounded=0;whiteSpace=wrap;html=1;fillColor=#f5f5f5;strokeColor=#666666;fontColor=#333333;" parent="1" vertex="1">
                    <mxGeometry x="200" y="-160" width="80" height="40" as="geometry"/>
                </mxCell>
                <mxCell id="72" value="&lt;span style=&quot;color: rgb(51, 51, 51);&quot;&gt;Packet id&lt;/span&gt;" style="rounded=0;whiteSpace=wrap;html=1;fillColor=#f5f5f5;strokeColor=#666666;fontColor=#333333;" parent="1" vertex="1">
                    <mxGeometry x="280" y="-160" width="80" height="40" as="geometry"/>
                </mxCell>
                <mxCell id="74" value="&lt;span style=&quot;color: rgb(51, 51, 51);&quot;&gt;Timestamp&lt;/span&gt;" style="rounded=0;whiteSpace=wrap;html=1;fillColor=#f5f5f5;strokeColor=#666666;fontColor=#333333;" parent="1" vertex="1">
                    <mxGeometry x="360" y="-160" width="80" height="40" as="geometry"/>
                </mxCell>
                <mxCell id="75" value="Item 0" style="rounded=0;whiteSpace=wrap;html=1;fillColor=#d5e8d4;strokeColor=#82b366;" parent="1" vertex="1">
                    <mxGeometry x="440" y="-180" width="160" height="20" as="geometry"/>
                </mxCell>
                <mxCell id="76" value="&lt;span style=&quot;color: rgb(51, 51, 51);&quot;&gt;Data&lt;/span&gt;" style="rounded=0;whiteSpace=wrap;html=1;fillColor=#f5f5f5;strokeColor=#666666;fontColor=#333333;" parent="1" vertex="1">
                    <mxGeometry x="440" y="-160" width="160" height="40" as="geometry"/>
                </mxCell>
                <mxCell id="77" value="HEADER" style="rounded=0;whiteSpace=wrap;html=1;fillColor=#f8cecc;strokeColor=#b85450;" parent="1" vertex="1">
                    <mxGeometry x="200" y="-180" width="240" height="20" as="geometry"/>
                </mxCell>
                <mxCell id="79" value="Item n" style="rounded=0;whiteSpace=wrap;html=1;fillColor=#d5e8d4;strokeColor=#82b366;" parent="1" vertex="1">
                    <mxGeometry x="600" y="-180" width="160" height="20" as="geometry"/>
                </mxCell>
                <mxCell id="80" value="&lt;span style=&quot;color: rgb(51, 51, 51);&quot;&gt;Variable length&lt;br&gt;Data&lt;/span&gt;" style="rounded=0;whiteSpace=wrap;html=1;fillColor=#f5f5f5;strokeColor=#666666;fontColor=#333333;" parent="1" vertex="1">
                    <mxGeometry x="640" y="-160" width="120" height="40" as="geometry"/>
                </mxCell>
                <mxCell id="81" value="&lt;span style=&quot;color: rgb(51, 51, 51);&quot;&gt;SIZE&lt;/span&gt;" style="rounded=0;whiteSpace=wrap;html=1;fillColor=#f5f5f5;strokeColor=#666666;fontColor=#333333;" parent="1" vertex="1">
                    <mxGeometry x="600" y="-160" width="40" height="40" as="geometry"/>
                </mxCell>
                <mxCell id="87" value="N/A" style="rounded=0;whiteSpace=wrap;html=1;fillColor=#f5f5f5;strokeColor=#666666;fontColor=#333333;" vertex="1" parent="1">
                    <mxGeometry x="320" y="-320" width="40" height="40" as="geometry"/>
                </mxCell>
                <mxCell id="82" value="0" style="rounded=0;whiteSpace=wrap;html=1;fillColor=#eeeeee;strokeColor=#36393d;" vertex="1" parent="1">
                    <mxGeometry x="200" y="-270" width="40" height="20" as="geometry"/>
                </mxCell>
                <mxCell id="83" value="1" style="rounded=0;whiteSpace=wrap;html=1;fillColor=#eeeeee;strokeColor=#36393d;" vertex="1" parent="1">
                    <mxGeometry x="240" y="-270" width="40" height="20" as="geometry"/>
                </mxCell>
                <mxCell id="84" value="2" style="rounded=0;whiteSpace=wrap;html=1;fillColor=#eeeeee;strokeColor=#36393d;" vertex="1" parent="1">
                    <mxGeometry x="280" y="-270" width="40" height="20" as="geometry"/>
                </mxCell>
                <mxCell id="85" value="3" style="rounded=0;whiteSpace=wrap;html=1;fillColor=#eeeeee;strokeColor=#36393d;" vertex="1" parent="1">
                    <mxGeometry x="320" y="-270" width="40" height="20" as="geometry"/>
                </mxCell>
                <mxCell id="86" value="4" style="rounded=0;whiteSpace=wrap;html=1;fillColor=#eeeeee;strokeColor=#36393d;" vertex="1" parent="1">
                    <mxGeometry x="360" y="-270" width="40" height="20" as="geometry"/>
                </mxCell>
                <mxCell id="88" value="5" style="rounded=0;whiteSpace=wrap;html=1;fillColor=#eeeeee;strokeColor=#36393d;" vertex="1" parent="1">
                    <mxGeometry x="400" y="-270" width="40" height="20" as="geometry"/>
                </mxCell>
                <mxCell id="89" value="6" style="rounded=0;whiteSpace=wrap;html=1;fillColor=#eeeeee;strokeColor=#36393d;" vertex="1" parent="1">
                    <mxGeometry x="440" y="-270" width="40" height="20" as="geometry"/>
                </mxCell>
                <mxCell id="90" value="7" style="rounded=0;whiteSpace=wrap;html=1;fillColor=#eeeeee;strokeColor=#36393d;" vertex="1" parent="1">
                    <mxGeometry x="480" y="-270" width="40" height="20" as="geometry"/>
                </mxCell>
                <mxCell id="97" value="0" style="rounded=0;whiteSpace=wrap;html=1;" vertex="1" parent="1">
                    <mxGeometry x="520" y="-270" width="40" height="20" as="geometry"/>
                </mxCell>
                <mxCell id="98" value="1" style="rounded=0;whiteSpace=wrap;html=1;" vertex="1" parent="1">
                    <mxGeometry x="560" y="-270" width="40" height="20" as="geometry"/>
                </mxCell>
                <mxCell id="99" value="2" style="rounded=0;whiteSpace=wrap;html=1;" vertex="1" parent="1">
                    <mxGeometry x="600" y="-270" width="40" height="20" as="geometry"/>
                </mxCell>
                <mxCell id="100" value="3" style="rounded=0;whiteSpace=wrap;html=1;" vertex="1" parent="1">
                    <mxGeometry x="640" y="-270" width="40" height="20" as="geometry"/>
                </mxCell>
                <mxCell id="101" value="4" style="rounded=0;whiteSpace=wrap;html=1;" vertex="1" parent="1">
                    <mxGeometry x="680" y="-270" width="40" height="20" as="geometry"/>
                </mxCell>
                <mxCell id="102" value="5" style="rounded=0;whiteSpace=wrap;html=1;" vertex="1" parent="1">
                    <mxGeometry x="720" y="-270" width="40" height="20" as="geometry"/>
                </mxCell>
                <mxCell id="115" value="0" style="rounded=0;whiteSpace=wrap;html=1;fillColor=#eeeeee;strokeColor=#36393d;" vertex="1" parent="1">
                    <mxGeometry x="760" y="-270" width="40" height="20" as="geometry"/>
                </mxCell>
                <mxCell id="116" value="1" style="rounded=0;whiteSpace=wrap;html=1;fillColor=#eeeeee;strokeColor=#36393d;" vertex="1" parent="1">
                    <mxGeometry x="800" y="-270" width="40" height="20" as="geometry"/>
                </mxCell>
                <mxCell id="117" value="2" style="rounded=0;whiteSpace=wrap;html=1;fillColor=#eeeeee;strokeColor=#36393d;" vertex="1" parent="1">
                    <mxGeometry x="840" y="-270" width="40" height="20" as="geometry"/>
                </mxCell>
                <mxCell id="118" value="3" style="rounded=0;whiteSpace=wrap;html=1;fillColor=#eeeeee;strokeColor=#36393d;" vertex="1" parent="1">
                    <mxGeometry x="880" y="-270" width="40" height="20" as="geometry"/>
                </mxCell>
                <mxCell id="119" value="4" style="rounded=0;whiteSpace=wrap;html=1;fillColor=#eeeeee;strokeColor=#36393d;" vertex="1" parent="1">
                    <mxGeometry x="920" y="-270" width="40" height="20" as="geometry"/>
                </mxCell>
                <mxCell id="120" value="5" style="rounded=0;whiteSpace=wrap;html=1;fillColor=#eeeeee;strokeColor=#36393d;" vertex="1" parent="1">
                    <mxGeometry x="960" y="-270" width="40" height="20" as="geometry"/>
                </mxCell>
            </root>
        </mxGraphModel>
    </diagram>
    <diagram id="spgo_ZM53PilI1epJ_PP" name="Page-2">
        <mxGraphModel dx="1018" dy="877" grid="1" gridSize="10" guides="1" tooltips="1" connect="1" arrows="1" fold="1" page="1" pageScale="1" pageWidth="850" pageHeight="1100" math="0" shadow="0">
            <root>
                <mxCell id="0"/>
                <mxCell id="1" parent="0"/>
                <mxCell id="H-Vw1sji3MmnnZHTfAvp-1" style="edgeStyle=none;html=1;exitX=0.5;exitY=1;exitDx=0;exitDy=0;entryX=0.5;entryY=0;entryDx=0;entryDy=0;" parent="1" source="H-Vw1sji3MmnnZHTfAvp-2" target="H-Vw1sji3MmnnZHTfAvp-8" edge="1">
                    <mxGeometry relative="1" as="geometry"/>
                </mxCell>
                <mxCell id="H-Vw1sji3MmnnZHTfAvp-2" value="" style="rounded=0;whiteSpace=wrap;html=1;" parent="1" vertex="1">
                    <mxGeometry x="170" y="630" width="100" height="140" as="geometry"/>
                </mxCell>
                <mxCell id="H-Vw1sji3MmnnZHTfAvp-3" value="Cobs&lt;br&gt;Encoding" style="rounded=0;whiteSpace=wrap;html=1;" parent="1" vertex="1">
                    <mxGeometry x="180" y="720" width="80" height="40" as="geometry"/>
                </mxCell>
                <mxCell id="H-Vw1sji3MmnnZHTfAvp-4" style="edgeStyle=none;html=1;exitX=0.5;exitY=1;exitDx=0;exitDy=0;entryX=0.5;entryY=0;entryDx=0;entryDy=0;" parent="1" source="H-Vw1sji3MmnnZHTfAvp-5" target="H-Vw1sji3MmnnZHTfAvp-7" edge="1">
                    <mxGeometry relative="1" as="geometry"/>
                </mxCell>
                <mxCell id="H-Vw1sji3MmnnZHTfAvp-5" value="list[DATA]|data" style="rounded=0;whiteSpace=wrap;html=1;fillColor=#f5f5f5;strokeColor=#666666;fontColor=#333333;" parent="1" vertex="1">
                    <mxGeometry x="150" y="550" width="140" height="40" as="geometry"/>
                </mxCell>
                <mxCell id="H-Vw1sji3MmnnZHTfAvp-6" style="edgeStyle=none;html=1;exitX=0.5;exitY=1;exitDx=0;exitDy=0;" parent="1" source="H-Vw1sji3MmnnZHTfAvp-7" target="H-Vw1sji3MmnnZHTfAvp-3" edge="1">
                    <mxGeometry relative="1" as="geometry"/>
                </mxCell>
                <mxCell id="H-Vw1sji3MmnnZHTfAvp-7" value="&lt;div&gt;Add CRC&lt;/div&gt;" style="rounded=0;whiteSpace=wrap;html=1;" parent="1" vertex="1">
                    <mxGeometry x="180" y="640" width="80" height="40" as="geometry"/>
                </mxCell>
                <mxCell id="H-Vw1sji3MmnnZHTfAvp-8" value="stream" style="rounded=0;whiteSpace=wrap;html=1;fillColor=#f5f5f5;strokeColor=#666666;fontColor=#333333;" parent="1" vertex="1">
                    <mxGeometry x="165" y="810" width="110" height="50" as="geometry"/>
                </mxCell>
                <mxCell id="H-Vw1sji3MmnnZHTfAvp-9" style="edgeStyle=none;html=1;exitX=0.5;exitY=1;exitDx=0;exitDy=0;entryX=0.5;entryY=0;entryDx=0;entryDy=0;" parent="1" source="H-Vw1sji3MmnnZHTfAvp-10" target="H-Vw1sji3MmnnZHTfAvp-12" edge="1">
                    <mxGeometry relative="1" as="geometry"/>
                </mxCell>
                <mxCell id="H-Vw1sji3MmnnZHTfAvp-10" value="stream" style="rounded=0;whiteSpace=wrap;html=1;fillColor=#f5f5f5;strokeColor=#666666;fontColor=#333333;" parent="1" vertex="1">
                    <mxGeometry x="370" y="550" width="110" height="40" as="geometry"/>
                </mxCell>
                <mxCell id="H-Vw1sji3MmnnZHTfAvp-11" style="edgeStyle=none;html=1;exitX=0.5;exitY=1;exitDx=0;exitDy=0;" parent="1" source="H-Vw1sji3MmnnZHTfAvp-12" target="H-Vw1sji3MmnnZHTfAvp-15" edge="1">
                    <mxGeometry relative="1" as="geometry"/>
                </mxCell>
                <mxCell id="H-Vw1sji3MmnnZHTfAvp-12" value="" style="rounded=0;whiteSpace=wrap;html=1;" parent="1" vertex="1">
                    <mxGeometry x="372" y="631" width="105" height="130" as="geometry"/>
                </mxCell>
                <mxCell id="H-Vw1sji3MmnnZHTfAvp-13" value="Cobs&lt;br&gt;Encoding" style="rounded=0;whiteSpace=wrap;html=1;" parent="1" vertex="1">
                    <mxGeometry x="382" y="641" width="80" height="40" as="geometry"/>
                </mxCell>
                <mxCell id="H-Vw1sji3MmnnZHTfAvp-14" value="&lt;div&gt;Add CRC&lt;/div&gt;" style="rounded=0;whiteSpace=wrap;html=1;" parent="1" vertex="1">
                    <mxGeometry x="384.5" y="711" width="80" height="40" as="geometry"/>
                </mxCell>
                <mxCell id="H-Vw1sji3MmnnZHTfAvp-15" value="list[DATA]" style="rounded=0;whiteSpace=wrap;html=1;fillColor=#f5f5f5;strokeColor=#666666;fontColor=#333333;" parent="1" vertex="1">
                    <mxGeometry x="354.5" y="821" width="140" height="40" as="geometry"/>
                </mxCell>
            </root>
        </mxGraphModel>
    </diagram>
</mxfile>